<?xml version="1.0" encoding="utf-8"?>
<!-- Generator: Adobe Illustrator 24.1.2, SVG Export Plug-In . SVG Version: 6.00 Build 0)  -->
<svg version="1.1" id="Layer_1" xmlns="http://www.w3.org/2000/svg" xmlns:xlink="http://www.w3.org/1999/xlink" x="0px" y="0px"
	 width="138px" height="144px" viewBox="0 0 138 144" style="enable-background:new 0 0 138 144;" xml:space="preserve">
<style type="text/css">
	.st0{fill:#F49C3B;}
	.st1{fill:#223B32;}
	.st2{fill:#D3BEB6;}
	.st3{fill:#F8ECE0;}
	.st4{fill:#FFFFFF;}
</style>
<path class="st0" d="M122.5,101.5l-2.4-11.7c-0.1-0.3-0.2-0.5-0.3-0.7l-9.1-11.4l0,0c-0.1-0.1-0.2-0.2-0.3-0.3l0,0
	c-0.1-0.1-0.2-0.1-0.3-0.2l0,0L44.2,50.4l0,0c-0.2-0.1-0.3-0.1-0.5-0.1c0,0,0,0-0.1,0c-0.2,0-0.3,0-0.5,0.1H43h-0.1
	c-0.1,0.1-0.2,0.1-0.3,0.2l0,0c-0.1,0.1-0.3,0.3-0.3,0.4l0,0L20.8,87.9c-0.2,0.3-0.2,0.6-0.2,0.9l2.7,49.5l0,0c0,0.1,0,0.2,0.1,0.3
	l0,0c0,0.2,0.1,0.3,0.2,0.4l0.1,0.1c0.1,0.1,0.1,0.2,0.2,0.2l0.1,0.1l0.1,0.1l7.9,4.1c0.2,0.1,0.4,0.2,0.7,0.2c0.1,0,0.2,0,0.3,0
	l55.7-8.9l0,0c0.1,0,0.3-0.1,0.4-0.1c0,0,0.1,0,0.1-0.1c0.1-0.1,0.2-0.1,0.3-0.2c0,0,0,0,0.1,0L122,103c0.1-0.1,0.2-0.2,0.3-0.4
	v-0.1c0.1-0.1,0.1-0.3,0.1-0.5v-0.1C122.5,101.8,122.5,101.6,122.5,101.5z"/>
<path class="st1" d="M40.5,0.1L29.8,4.6c-0.2,0.1-0.4,0.2-0.6,0.4L20,15.9l0,0c-0.1,0.1-0.1,0.2-0.2,0.3c0,0,0,0,0,0.1
	s-0.1,0.2-0.1,0.3l0,0l-13.2,68l0,0c0,0.2,0,0.3,0,0.5c0,0,0,0,0,0.1c0,0.2,0.1,0.3,0.2,0.5c0,0,0,0,0,0.1c0,0,0,0.1,0.1,0.1
	c0,0.1,0.1,0.2,0.2,0.3c0,0,0,0,0.1,0c0.1,0.1,0.3,0.2,0.5,0.3l0,0L46.8,100c0.3,0.1,0.6,0.1,0.9,0l46.9-12l0,0
	c0.1,0,0.2-0.1,0.3-0.1l0,0c0.1-0.1,0.3-0.2,0.4-0.3l0.1-0.1c0.1-0.1,0.1-0.2,0.2-0.3c0,0,0-0.1,0.1-0.2c0-0.1,0.1-0.1,0.1-0.2
	l2.5-8.3c0.1-0.2,0.1-0.5,0-0.7c0-0.1,0-0.2-0.1-0.3L79.1,26l0,0c-0.1-0.1-0.1-0.3-0.2-0.4l-0.1-0.1c-0.1-0.1-0.2-0.2-0.2-0.2
	s0,0-0.1-0.1L42,0.3c-0.1-0.1-0.3-0.2-0.4-0.2h-0.1c-0.2,0-0.3,0-0.5,0h-0.1C40.8,0,40.6,0.1,40.5,0.1z"/>
<path class="st2" d="M131.6,62.4L131.6,62.4c0-0.4-0.3-1.6-0.6-3.1c0-0.1,0-0.2-0.1-0.3c-1-5.2-3.1-14.3-3.2-14.8
	c0-0.2-0.2-0.3-0.3-0.4L113,39.3l0,0h-0.1l0,0h-0.1l0,0c0,0-0.1,0-0.1,0.1l0,0l0,0l-0.1,0.1l0,0l-10.1,15.7
	c-0.1,0.1-0.1,0.3-0.1,0.4l4.1,12.4c0,0.1,0.1,0.2,0.2,0.3l11.8,6.6l0,0l0,0c0,0,0,0,0.1,0l0,0h0.1l0,0h0.1l6.1-1.7
	c0.1,0,0.2-0.1,0.3-0.2c0.2-0.3,5.1-6.8,6.4-10.5l0,0V62.4L131.6,62.4C131.6,62.5,131.6,62.4,131.6,62.4z"/>
<path class="st3" d="M110.4,14.5L110.4,14.5c-0.2-0.1-0.9-0.5-1.7-0.9c0,0-0.1-0.1-0.2-0.1c-3-1.4-8.4-3.9-8.7-4c-0.1,0-0.2,0-0.3,0
	l-7.8,5.6l0,0c0,0,0,0-0.1,0.1l0,0c0,0,0,0,0,0.1l0,0v0.1l0,0l0,0v0.1l0,0l4.1,11c0,0.1,0.1,0.2,0.2,0.2l7.8,2.6c0.1,0,0.1,0,0.2,0
	l7.8-3.4l0,0l0,0l0,0l0,0l0,0l0,0c0,0,0,0,0-0.1l1.5-3.7c0-0.1,0-0.1,0-0.2C113.3,21.6,111.8,16.6,110.4,14.5
	C110.5,14.6,110.5,14.6,110.4,14.5C110.5,14.6,110.4,14.6,110.4,14.5L110.4,14.5L110.4,14.5z"/>
<path class="st4" d="M128.8,82.4L128.8,82.4c0-0.2,0-0.4,0-0.5l-2.9-11.2c-0.1-0.2-0.2-0.5-0.3-0.7l-9.4-10.7l0,0
	c-0.1-0.1-0.2-0.2-0.3-0.2l0,0c-0.1-0.1-0.2-0.1-0.3-0.1l0,0L50.4,36.1l0,0C50.2,36,50.1,36,49.9,36c0,0,0,0-0.1,0
	c-0.2,0-0.3,0-0.5,0.1c0,0,0,0-0.1,0h-0.1c-0.1,0.1-0.2,0.1-0.3,0.2l0,0c-0.1,0.1-0.2,0.3-0.3,0.4l0,0l-19,36.7
	c-0.1,0.3-0.2,0.6-0.2,0.9l4.9,47.9l0,0c0,0.1,0,0.2,0.1,0.3l0,0c0.1,0.1,0.1,0.3,0.2,0.4l0.1,0.1c0.1,0.1,0.1,0.2,0.2,0.2l0.1,0.1
	l0.1,0.1l7.8,3.6c0.2,0.1,0.4,0.1,0.7,0.1c0.1,0,0.2,0,0.3,0l53.6-11.2l0,0c0.1,0,0.3-0.1,0.4-0.2c0,0,0.1,0,0.1-0.1
	c0.1-0.1,0.2-0.1,0.3-0.2c0,0,0,0,0.1,0l29.9-32.3c0.1-0.1,0.2-0.3,0.3-0.4v-0.1C128.7,82.8,128.7,82.6,128.8,82.4z M97.1,112.5
	l-9.7-7.1l33-28.2l4.7,5.1L97.1,112.5z M37.2,120L36,108.3l39.8-1.4L37.2,120z M49.9,41l32.6,63.5l-5.9,0.2L37.5,64.9L49.9,41z
	 M113.7,61.7l4.8,12.7L76.4,85.7L56.1,46.2l16.8,1.1L113.7,61.7z M77.4,87.6l37.7-10L85.3,103L77.4,87.6z M55,44l-1.9-3.6l12.3,4.3
	L55,44z M73.7,104.8l-38,1.3L34.4,93l15.1-12.9L73.7,104.8z M124.1,76.7l-2.3-2.5l-2.3-6.2l3.4,3.9L124.1,76.7z M36.5,66.9L48,78.6
	L34.1,90.5l-1.6-15.9L36.5,66.9z M43.8,124.1l-3.8-1.8l44.4-15.1l9,6.5L43.8,124.1z"/>
</svg>
