<?xml version="1.0" encoding="utf-8"?>
<!-- Generator: Adobe Illustrator 24.1.2, SVG Export Plug-In . SVG Version: 6.00 Build 0)  -->
<svg version="1.1" id="Layer_1" xmlns="http://www.w3.org/2000/svg" xmlns:xlink="http://www.w3.org/1999/xlink" x="0px" y="0px"
	 width="138px" height="144px" viewBox="0 0 138 144" style="enable-background:new 0 0 138 144;" xml:space="preserve">
<style type="text/css">
	.st0{fill:#F49C3B;}
	.st1{fill:#223B32;}
	.st2{fill:#D3BEB6;}
	.st3{fill:#FFFFFF;}
</style>
<path class="st0" d="M114.1,46.5l-7.8-7.5l0,0c-0.1-0.1-0.2-0.2-0.3-0.2c0,0,0,0-0.1,0s-0.2-0.1-0.3-0.1h-0.1c-0.1,0-0.1,0-0.2,0
	c0,0,0,0-0.1,0s-0.1,0-0.2,0s-0.2,0-0.2,0s0,0-0.1,0L24.9,50.1l0,0c-0.2,0-0.4,0.1-0.6,0.2l0,0c-0.2,0.1-0.3,0.2-0.4,0.4l0,0l0,0
	c-0.1,0.2-0.2,0.3-0.3,0.5c0,0,0,0,0,0.1c-0.1,0.2-0.1,0.4-0.1,0.6l0,0l-11,28.9l0,0c-0.1,0.2-0.2,0.4-0.2,0.6l0,0l-4.2,36.8l0,0
	c0,0.2,0,0.3,0,0.5c0,0,0,0,0,0.1s0,0.2,0.1,0.3c0,0,0,0.1,0.1,0.1c0,0,0,0.1,0.1,0.1c0.1,0.1,0.2,0.3,0.3,0.4l0,0
	c0.1,0.1,0.2,0.2,0.4,0.3l0,0l21.5,11.9c0.5,0.2,1,0.3,1.5,0.1c0.1,0,0.2-0.1,0.3-0.2l69.9-46.7c0.2-0.1,0.3-0.3,0.5-0.5
	s3.9-5.7,5.6-10.5c1.6-4.7,6.1-25.2,6.3-26C114.7,47.6,114.5,46.9,114.1,46.5z"/>
<path class="st1" d="M68.9,111.3L68.9,111.3c-0.5-0.2-2-0.7-3.9-1.3c-0.1-0.1-0.2-0.1-0.4-0.1c-6.7-2.1-18.5-5.6-19.2-5.8
	c-0.2-0.1-0.5,0-0.6,0.1l-14.4,13.9l0,0l-0.1,0.1l0,0c0,0.1,0,0.1-0.1,0.2l0,0c0,0.1,0,0.1,0,0.2l0,0l0,0c0,0.1,0,0.1,0.1,0.2l0,0
	L42,140.5c0.1,0.2,0.3,0.3,0.4,0.3l17,3.1c0.2,0,0.3,0,0.4-0.1l15.1-9.4l0,0l0,0c0,0,0.1,0,0.1-0.1l0,0c0,0,0-0.1,0.1-0.1l0,0v-0.1
	l1.9-8.2c0-0.1,0-0.3,0-0.4C76.8,125.1,72.4,115.3,68.9,111.3L68.9,111.3L68.9,111.3L68.9,111.3C69,111.3,68.9,111.3,68.9,111.3z"/>
<path class="st2" d="M93,123.6c3.6,0.4,7-2.2,7.2-2.3L129.6,96l0,0l0.1-0.1c0-0.1,0.1-0.1,0.1-0.2v-0.1c0-0.1,0-0.1,0-0.2l0,0v-0.1
	c0-0.1,0-0.1,0-0.2s0-0.1-0.1-0.2c0,0,0-0.1-0.1-0.1l-10.8-15.2c-0.2-0.3-0.6-0.5-1-0.4l-20.5,4.7l0,0l0,0l0,0c-0.1,0-0.1,0-0.2,0.1
	c0,0-0.1,0-0.1,0.1l-0.1,0.1c0,0,0,0.1-0.1,0.1l-0.1,0.1c0,0,0,0.1-0.1,0.1c0,0,0,0,0,0.1l-11.9,28.9v0.1c0,0.1,0,0.1,0,0.2
	l-0.4,7.5c0,0,0,0,0,0.1s0,0.1,0,0.2v0.1c0,0.1,0.1,0.1,0.1,0.2c0,0,0,0.1,0.1,0.1l0.1,0.1l0.1,0.1l0,0h0.1c0.1,0,0.1,0.1,0.2,0.1
	C85.3,122.2,89.7,123.2,93,123.6z"/>
<path class="st1" d="M118,19.4L118,19.4c-0.9-0.5-3.4-1.8-6.6-3.4c-0.2-0.2-0.4-0.3-0.6-0.3c-11.5-5.6-31.9-15.1-33-15.6
	C77.4-0.1,77,0,76.7,0.2l-29.8,21l0,0c-0.1,0.1-0.2,0.1-0.2,0.2c0,0,0,0,0,0.1c-0.1,0.1-0.1,0.2-0.1,0.3c0,0,0,0,0,0.1s0,0.2,0,0.3
	l0,0l0,0c0,0.1,0,0.2,0.1,0.3l0,0l15.2,42.3c0.1,0.3,0.4,0.6,0.7,0.7l29.7,10.2c0.3,0.1,0.6,0.1,0.8,0l29.8-12.8l0,0c0,0,0,0,0.1,0
	s0.1-0.1,0.2-0.1c0,0,0,0,0.1-0.1l0.1-0.1c0,0,0,0,0-0.1s0.1-0.1,0.1-0.2L129,48c0.1-0.2,0.1-0.5,0-0.7c-0.2-0.8-5.5-19.7-10.7-27.6
	l0,0c0-0.1-0.1-0.1-0.1-0.2l0,0C118.1,19.5,118,19.5,118,19.4z"/>
<path class="st3" d="M118.2,77.7l-3.8-8.2l0,0c0-0.1-0.1-0.2-0.2-0.3l0,0c-0.1-0.1-0.1-0.1-0.2-0.2c0,0-0.1,0-0.1-0.1l-0.1-0.1l0,0
	c0,0-0.1,0-0.1-0.1c-0.1,0-0.1,0-0.2-0.1c0,0,0,0-0.1,0L47.8,54.1l0,0c-0.2,0-0.3,0-0.5,0l0,0c-0.2,0-0.3,0.1-0.5,0.2l0,0l0,0
	c-0.1,0.1-0.3,0.2-0.4,0.3l0,0c-0.1,0.1-0.2,0.3-0.2,0.4l0,0l-2.3,7L29,74.3l0,0c-0.1,0.1-0.2,0.2-0.3,0.4l0,0l-14.2,27.4l0,0
	c-0.1,0.1-0.1,0.2-0.1,0.4c0,0,0,0,0,0.1s0,0.1,0,0.2v0.1v0.1c0,0.1,0,0.2,0.1,0.4l0,0c0.1,0.1,0.1,0.2,0.2,0.3l0,0l13.2,15.6
	c0.3,0.3,0.7,0.5,1.1,0.5c0.1,0,0.2,0,0.3,0l68.3-15.6c0.2,0,0.3-0.1,0.5-0.2s4.8-3.3,7.5-6.5s12.2-17.8,12.6-18.4
	C118.4,78.7,118.4,78.1,118.2,77.7z M45.3,64.5l3.9,1.3l-10.9,4.5L45.3,64.5z M47.8,59l2.4,4.1L46.9,62L47.8,59z M50.3,57.6l7.7,1.7
	l-4.4,4.1L50.3,57.6z M30.9,76.5l21.4-8.9l7.6,33.5l-1.5,0.2H18.1L30.9,76.5z M55.6,69.1L80.2,87l-17.5,13.3L55.6,69.1z M82.6,88.7
	l11.1,8.1l-26.1,3.4L82.6,88.7z M97,95.6L55.6,65.5l5.9-5.5l49.3,11L97,95.6z M29.5,116.8l-10.6-12.6h39.7c0.1,0,0.1,0,0.2,0
	l37.9-4.9l0.7,1.6c-0.3,0.2-0.5,0.4-0.7,0.5L29.5,116.8z M103.3,95.6c-1,1.2-2.4,2.5-3.7,3.5L99,97.8l13.9-24.6l2.3,4.9
	C113.3,81.1,105.5,93,103.3,95.6z"/>
<path class="st3" d="M114.6,43.1L114.6,43.1C114.6,43,114.6,43,114.6,43.1c0-0.2,0-0.2,0-0.3c0-0.2-0.3-4.8-0.8-8.1
	c-0.6-3.7-4.1-6.3-4.2-6.4l-32.8-22l0,0c-0.1,0-0.1,0-0.2-0.1c-0.1,0-0.1-0.1-0.2-0.1s-0.1,0-0.2,0s-0.2,0-0.2,0l0,0h-0.1
	c-0.1,0-0.1,0.1-0.2,0.1s-0.1,0.1-0.1,0.1s-0.1,0-0.1,0.1L63.6,21.3c-0.3,0.3-0.3,0.8-0.1,1.1l10.2,18.8l0,0l0,0l0,0
	c0,0.1,0.1,0.1,0.1,0.2c0,0,0,0,0.1,0.1l0.1,0.1h0.1c0,0,0.1,0,0.1,0.1h0.1c0,0,0,0,0.1,0l31.6,3.8h0.1c0.1,0,0.1,0,0.2,0l7.5-1.7
	c0,0,0,0,0.1,0s0.1,0,0.2-0.1c0,0,0.1,0,0.1-0.1c0.1,0,0.1-0.1,0.1-0.1l0.1-0.1c0,0,0.1-0.1,0.1-0.2
	C114.6,43.2,114.6,43.2,114.6,43.1z M111.9,35c0.3,2.1,0.6,4.9,0.7,6.5l-28.2-6.8L77.9,9.5L108.5,30C108.5,30,111.4,32.2,111.9,35z
	 M75.8,9.4l6.5,25.7l-7.4,4.2L65.6,22L75.8,9.4z M106.1,43.5l-28.4-3.4l6-3.4l25.4,6.1L106.1,43.5z"/>
</svg>
