<?xml version="1.0" encoding="utf-8"?>
<!-- Generator: Adobe Illustrator 24.1.2, SVG Export Plug-In . SVG Version: 6.00 Build 0)  -->
<svg version="1.1" id="Layer_1" xmlns="http://www.w3.org/2000/svg" xmlns:xlink="http://www.w3.org/1999/xlink" x="0px" y="0px"
	 width="138px" height="144px" viewBox="0 0 138 144" style="enable-background:new 0 0 138 144;" xml:space="preserve">
<style type="text/css">
	.st0{fill:#D3BEB6;}
	.st1{fill:#F49C3B;}
	.st2{fill:#223B32;}
	.st3{fill:#FFFFFF;}
</style>
<path class="st0" d="M107.7,139.8c3.8-0.5,6.5-4.1,6.6-4.3l22.9-33.4l0,0c0-0.1,0.1-0.1,0.1-0.2s0.1-0.1,0.1-0.2s0-0.1,0-0.2
	s0-0.2,0-0.2l0,0v-0.1c0-0.1-0.1-0.1-0.1-0.2s-0.1-0.1-0.1-0.1s0-0.1-0.1-0.1l-15-12.4c-0.3-0.3-0.8-0.3-1.2-0.1l-19.4,10.2l0,0l0,0
	l0,0c-0.1,0-0.1,0.1-0.2,0.1c0,0,0,0.1-0.1,0.1l-0.1,0.1c0,0,0,0.1-0.1,0.1c0,0,0,0.1-0.1,0.1v0.1v0.1l-4.3,32.5v0.1
	c0,0.1,0,0.2,0,0.2l1.6,7.7c0,0,0,0,0,0.1s0,0.1,0.1,0.2c0,0,0,0.1,0.1,0.1c0,0.1,0.1,0.1,0.1,0.1l0.1,0.1c0,0,0.1,0.1,0.2,0.1
	s0.1,0.1,0.2,0.1l0,0h0.1c0.1,0,0.1,0,0.2,0C99.6,140.5,104.3,140.3,107.7,139.8z"/>
<path class="st1" d="M43.9,57.4c0,0.4,0.1,0.7,0.2,1l30.4,50.7l0,0c0,0,0,0.1,0.1,0.1c0,0,0,0.1,0.1,0.1c0,0,0,0.1,0.1,0.1l0,0
	c0,0,0,0,0.1,0.1c0,0,0.1,0,0.1,0.1l0.1,0.1l0,0l0,0c0,0,0.1,0,0.1,0.1c0,0,0,0,0.1,0l0,0c0,0,0,0,0.1,0l0,0h0.1h0.1h0.1l0,0l0,0
	l0,0c0,0,0,0,0.1,0h0.1H76c0.1,0,0.1,0,0.2,0h0.1h0.1h0.1c0,0,0,0,0.1,0h0.1l0,0l0,0c0,0,0.1,0,0.1-0.1l0,0c0,0,0,0,0.1,0
	c0,0,0.1,0,0.1-0.1c0,0,0.1,0,0.1-0.1c0,0,0,0,0.1-0.1l0,0L134.8,57l0,0c0.1-0.1,0.1-0.1,0.2-0.2l0.1-0.1c0-0.1,0.1-0.1,0.1-0.2
	c0,0,0-0.1,0.1-0.1l0,0c0-0.1,0.1-0.2,0.1-0.3l0,0c0-0.1,0-0.2,0-0.4l0,0l-2.6-40.2c0-0.7-0.5-1.3-1.2-1.5L90.9,0.1
	c-0.1,0-0.2-0.1-0.3-0.1c-0.1,0-0.3,0-0.4,0h-0.1c-0.1,0-0.2,0.1-0.3,0.1c0,0,0,0-0.1,0l-42,18.8c-0.6,0.3-1,0.8-1,1.5L43.9,57.4z"
	/>
<path class="st2" d="M87.3,122.8c0.3-0.2,0.5-0.5,0.6-0.8l18.7-54l0,0v-0.1v-0.1v-0.1c0,0,0,0,0-0.1c0,0,0,0,0-0.1v-0.1v-0.1
	c0,0,0,0,0-0.1l0,0v-0.1c0,0,0,0,0-0.1l0,0c0,0,0,0,0-0.1l0,0v-0.1c0,0,0-0.1-0.1-0.1v-0.1l0,0l0,0l0,0c0,0,0,0,0-0.1
	c0,0,0-0.1-0.1-0.1c0,0,0,0,0-0.1l-0.1-0.1c0,0,0,0-0.1-0.1c0,0-0.1,0-0.1-0.1c0,0,0,0-0.1,0c0,0,0,0-0.1,0h-0.1l0,0l0,0h-0.1l0,0
	h-0.1h-0.1h-0.1h-0.1l0,0L30.6,55.7l0,0c-0.1,0-0.2,0-0.2,0h-0.1c-0.1,0-0.2,0-0.2,0.1H30l0,0c-0.1,0-0.2,0.1-0.3,0.1l0,0
	c-0.1,0.1-0.2,0.1-0.3,0.2l0,0L1.1,83c-0.5,0.5-0.7,1.2-0.4,1.8l15,38.6c0,0.1,0.1,0.2,0.1,0.3c0.1,0.1,0.2,0.2,0.3,0.3
	c0,0,0.1,0,0.1,0.1c0.1,0.1,0.2,0.1,0.3,0.2l0,0l39.9,19.4c0.6,0.3,1.2,0.2,1.7-0.1L87.3,122.8z"/>
<path class="st3" d="M111.4,72.8c0-0.3-0.1-0.6-0.3-0.9L77.4,29.7l0,0c0,0,0,0-0.1-0.1c0,0,0,0-0.1-0.1c0,0,0,0-0.1-0.1l0,0
	c0,0,0,0-0.1,0c0,0-0.1,0-0.1-0.1c0,0-0.1,0-0.1-0.1l0,0l0,0h-0.1c0,0,0,0-0.1,0l0,0c0,0,0,0-0.1,0l0,0h-0.1h-0.1h-0.1l0,0l0,0l0,0
	c0,0,0,0-0.1,0H76c0,0,0,0-0.1,0s-0.1,0-0.2,0c0,0,0,0-0.1,0h-0.1c0,0,0,0-0.1,0c0,0,0,0-0.1,0c0,0,0,0-0.1,0l0,0l0,0
	c0,0-0.1,0-0.1,0.1l0,0c0,0,0,0-0.1,0c0,0,0,0-0.1,0.1s0,0-0.1,0.1c0,0,0,0-0.1,0.1l0,0L29.3,84.2l0,0c0,0.1-0.1,0.1-0.1,0.2
	c0,0,0,0.1-0.1,0.1c0,0.1-0.1,0.1-0.1,0.2v0.1l0,0c0,0.1,0,0.2,0,0.3l0,0c0,0.1,0,0.2,0,0.3l0,0l7.3,36c0.1,0.6,0.6,1.1,1.3,1.2
	l38.4,7.5c0.1,0,0.2,0,0.3,0c0.1,0,0.3,0,0.4-0.1h0.1c0.1,0,0.2-0.1,0.3-0.1l0,0l35.6-22c0.5-0.3,0.8-0.9,0.8-1.4L111.4,72.8z
	 M91.7,117.3l-13.9-4.5V97.4l10.7-1.9l13,15.8L91.7,117.3z M32.6,87.4L43,89.9l-7.9,10L32.6,87.4z M33.4,84.3l13.8-16.5L58,81.4
	l-2.6,8.1L33.4,84.3z M58.8,79L48.6,66.2l23.5-28.1L58.8,79z M74.6,40.8v53.3l-16.1-3.8L74.6,40.8z M74.6,97.3v11.4l-8-13.2
	L74.6,97.3z M77.8,115l11.5,3.7l-11.5,7.1V115z M77.8,94.2V36.6l30.5,52L77.8,94.2z M108.9,83.3L88.8,49l19.5,24.4L108.9,83.3z
	 M35.7,102.6l9.6-12.2l18.4,4.4l10.9,18.1v14L39.2,120L35.7,102.6z M103.2,110.1L90.9,95l18.5-3.4l0.8,14.2L103.2,110.1z"/>
</svg>
