<?xml version="1.0" encoding="utf-8"?>
<!-- Generator: Adobe Illustrator 24.1.2, SVG Export Plug-In . SVG Version: 6.00 Build 0)  -->
<svg version="1.1" id="Layer_1" xmlns="http://www.w3.org/2000/svg" xmlns:xlink="http://www.w3.org/1999/xlink" x="0px" y="0px"
	 width="138px" height="144px" viewBox="0 0 138 144" style="enable-background:new 0 0 138 144;" xml:space="preserve">
<style type="text/css">
	.st0{fill:#F49C3B;}
	.st1{fill:#D3BEB6;}
	.st2{fill:#223B32;}
	.st3{fill:#FFFFFF;}
</style>
<g>
	<path class="st0" d="M35.3,56.8L35.3,56.8c-0.6,1.2-1.8,4.3-3.4,8.5c-0.2,0.2-0.3,0.5-0.3,0.8c-5.5,14.7-14.8,40.7-15.3,42.1
		c-0.2,0.5-0.1,1,0.3,1.4l29.2,33.9l0,0c0.1,0.1,0.2,0.2,0.3,0.3c0,0,0,0,0.1,0c0.1,0.1,0.2,0.1,0.4,0.1h0.1c0.1,0,0.2,0,0.4,0l0,0
		l0,0c0.1,0,0.3-0.1,0.4-0.1l0,0l50-23.6c0.4-0.2,0.7-0.5,0.8-0.9l9-37.6c0.1-0.3,0-0.7-0.1-1L87.9,46l0,0c0,0,0,0-0.1-0.1
		c0-0.1-0.1-0.1-0.1-0.2l-0.1-0.1c-0.1-0.1-0.1-0.1-0.2-0.1c0,0-0.1,0-0.1-0.1c-0.1-0.1-0.2-0.1-0.3-0.1L69,40
		c-0.3-0.1-0.6-0.1-0.9,0c-0.9,0.4-23.5,9-32.4,16.3l0,0c-0.1,0.1-0.1,0.1-0.2,0.2l0,0C35.4,56.6,35.3,56.7,35.3,56.8z"/>
</g>
<path class="st1" d="M128.6,25.9L128.6,25.9c-0.6-0.2-2.1-0.7-4.1-1.4c-0.1-0.1-0.2-0.1-0.4-0.1c-7-2.2-19.6-5.9-20.3-6.1
	c-0.2-0.1-0.5,0-0.6,0.2L87.8,33.1l0,0c0,0-0.1,0.1-0.1,0.2l0,0c0,0.1,0,0.1-0.1,0.2l0,0c0,0.1,0,0.1,0,0.2l0,0l0,0
	c0,0.1,0,0.1,0.1,0.2l0,0l12.5,23c0.1,0.2,0.3,0.3,0.5,0.3l18,3.3c0.2,0,0.3,0,0.5-0.1l16.1-9.9l0,0l0,0c0,0,0.1,0,0.1-0.1l0,0
	c0,0,0-0.1,0.1-0.1l0,0c0,0,0-0.1,0.1-0.1l2-8.6c0-0.1,0-0.3,0-0.4c-0.2-0.4-4.9-10.8-8.5-15l0,0l-0.1-0.1l0,0
	C128.7,25.9,128.7,25.9,128.6,25.9z"/>
<path class="st2" d="M91.6,70.6L91.6,70.6c-0.2-1.3-0.9-4.8-1.9-9.4c0-0.3,0-0.6-0.2-0.9C86,44.2,79.4,16,79,14.5
	c-0.1-0.5-0.5-0.9-1-1.1L32.9,0.1l0,0c-0.1,0-0.3-0.1-0.4-0.1h-0.1c-0.1,0-0.3,0-0.4,0.1h-0.1c-0.1,0.1-0.2,0.1-0.3,0.2l0,0l0,0
	c-0.1,0.1-0.2,0.2-0.3,0.3l0,0L0.7,50c-0.2,0.4-0.3,0.8-0.1,1.3L14,89.5c0.1,0.3,0.4,0.6,0.7,0.8l36.8,19.9l0,0h0.1
	c0.1,0,0.2,0.1,0.2,0.1h0.1c0.1,0,0.2,0,0.2,0h0.1c0.1,0,0.2,0,0.3-0.1l18.9-5.6c0.3-0.1,0.6-0.3,0.8-0.5
	c0.6-0.9,15.5-21.4,19.4-32.8l0,0c0-0.1,0-0.2,0.1-0.3l0,0C91.6,70.8,91.6,70.7,91.6,70.6z"/>
<path class="st3" d="M102.4,87.6c1.2-16.7,2.9-46.1,3-47.8c0-0.5-0.2-1.1-0.7-1.3L64.5,12.4l0,0c-0.1-0.1-0.3-0.1-0.4-0.2H64
	c-0.1,0-0.3,0-0.4,0h-0.1c-0.1,0-0.3,0-0.4,0.1l0,0l0,0c-0.1,0.1-0.3,0.1-0.4,0.2l0,0L18.5,51.6c-0.3,0.3-0.5,0.7-0.5,1.2L20,94
	c0,0.4,0.2,0.7,0.4,1l30.1,30.1l0,0c0,0,0,0,0.1,0.1s0.1,0.1,0.2,0.1c0,0,0.1,0,0.1,0.1c0.1,0,0.1,0.1,0.2,0.1h0.1
	c0.1,0,0.2,0,0.3,0h20.1c0.3,0,0.6-0.1,0.9-0.3c0.9-0.7,21.4-16.4,28.4-26.4l0,0c0.1-0.1,0.1-0.2,0.1-0.2l0,0c0-0.1,0.1-0.2,0.1-0.3
	l0,0c0.2-1.4,0.5-4.9,0.9-9.7C102.4,88.2,102.5,87.9,102.4,87.6z M61.8,116.1C61.8,116,61.8,116,61.8,116.1L22.7,76.9
	c0.1-0.1,0.1-0.1,0.2-0.2l26.7-45.4l17.7,81.4L61.8,116.1z M69.9,111.1L51.8,27.4l1.2-2c0.1-0.1,0.1-0.3,0.2-0.4l10-8.9l33.5,78.3
	L69.9,111.1z M99,92.1l-4.1-9.7l4.4,5.9C99.2,89.7,99.1,90.9,99,92.1z M99.7,83.7L90,71c-0.1-0.1-0.1-0.1-0.2-0.2L67,17.6l35.2,22.9
	C102.1,45.3,100.8,68.2,99.7,83.7z M46.1,31.3l-24,40.9l-0.9-18.7L46.1,31.3z M22.5,80.9l36.8,36.8l-7.3,4.5L23,93.3L22.5,80.9z
	 M71.3,122.6H57l41-25.3l0.2,0.5C91.5,106.7,74.2,120.4,71.3,122.6z"/>
</svg>
