<svg xmlns="http://www.w3.org/2000/svg" viewBox="0 0 16 16">
<style type="text/css">
	.st0 {
		fill: #212121;
	}
	@media (prefers-color-scheme: dark) {
		.st0 {
			fill: #ffffff;
		}
	}
</style>
<path class="st0" d="M6.6,16L6.6,16l-0.1,0l-0.1-0.1l-4.2-4.2c-0.1-0.1-0.1-0.2-0.1-0.3L1.9,5.8c0-0.1,0-0.2,0.1-0.3l6.1-5.4
	C8.2,0,8.3,0,8.3,0l0.2,0l5.6,3.6c0.1,0,0.2,0.2,0.2,0.3c-0.1,0.9-0.3,4.5-0.4,6.6c0.1,0.1-0.1,0.2-0.1,0.3c0,0.5,0,1-0.1,1.2
	l-0.1,0.2c-0.9,1.3-3.4,3.3-3.9,3.7C9.6,16,9.5,16,9.4,16H6.6z M9.4,15.2c1.2-1,2.2-1.9,2.9-2.6l-4.1,2.6H9.4z M2.9,11.4l3.8,3.7
	l0.7-0.4l-4.5-4.5L2.9,11.4z M8.1,14.3l0.5-0.3L6.3,3.4L3,9.1L8.1,14.3z M7,2.1L6.9,2.4l2.5,11.1l3.3-2.1L8.2,1.1L7,2.1z M12.1,8.2
	l1,1.3c0.1-2.2,0.3-4.8,0.3-5.4L9.2,1.4L12.1,8.2z M2.6,6l0.1,1.8l2.4-4L2.6,6z"/>
</svg>
