<?xml version="1.0" encoding="utf-8"?>
<!-- Generator: Adobe Illustrator 24.1.2, SVG Export Plug-In . SVG Version: 6.00 Build 0)  -->
<svg version="1.1" id="Layer_1" xmlns="http://www.w3.org/2000/svg" xmlns:xlink="http://www.w3.org/1999/xlink" x="0px" y="0px"
	 width="372px" height="344px" viewBox="0 0 372 344" style="enable-background:new 0 0 372 344;" xml:space="preserve">
<style type="text/css">
	.st0{fill:#FFFFFF; opacity:0.1;}
</style>
<path class="st0" d="M372,174.6L372,174.6c0-0.7,0-1.5,0-1.9l-10.8-41.9c-0.4-0.7-0.7-1.9-1.1-2.6l-35.1-40l0,0
	c-0.4-0.4-0.7-0.7-1.1-0.7l0,0c-0.4-0.4-0.7-0.4-1.1-0.4l0,0L79,1.6l0,0c-0.7-0.4-1.1-0.4-1.9-0.4c0,0,0,0-0.4,0
	c-0.7,0-1.1,0-1.9,0.4c0,0,0,0-0.4,0h-0.4C73.8,2,73.4,2,73,2.4l0,0c-0.4,0.4-0.7,1.1-1.1,1.5l0,0L0.9,141c-0.4,1.1-0.7,2.2-0.7,3.4
	l18.3,179l0,0c0,0.4,0,0.7,0.4,1.1l0,0c0.4,0.4,0.4,1.1,0.7,1.5l0.4,0.4c0.4,0.4,0.4,0.7,0.7,0.7l0.4,0.4l0.4,0.4l29.2,13.5
	c0.7,0.4,1.5,0.4,2.6,0.4c0.4,0,0.7,0,1.1,0l200.3-41.9l0,0c0.4,0,1.1-0.4,1.5-0.7c0,0,0.4,0,0.4-0.4c0.4-0.4,0.7-0.4,1.1-0.7
	c0,0,0,0,0.4,0l111.7-120.7c0.4-0.4,0.7-1.1,1.1-1.5v-0.4C371.6,176.1,371.6,175.4,372,174.6z M253.5,287.1l-36.3-26.5l123.3-105.4
	l17.6,19.1L253.5,287.1z M29.7,315.2l-4.5-43.7l148.7-5.2L29.7,315.2z M77.1,19.9L199,257.2l-22.1,0.7L30.8,109.2L77.1,19.9z
	 M315.6,97.3l17.9,47.5L176.2,187L100.3,39.4l62.8,4.1L315.6,97.3z M179.9,194.1l140.9-37.4l-111.4,94.9L179.9,194.1z M96.2,31.1
	l-7.1-13.5l46,16.1L96.2,31.1z M166.1,258.4l-142,4.9l-4.9-49l56.4-48.2L166.1,258.4z M354.4,153.3l-8.6-9.3l-8.6-23.2l12.7,14.6
	L354.4,153.3z M27,116.7l43,43.7l-51.9,44.5l-6-59.4L27,116.7z M54.3,330.5l-14.2-6.7l165.9-56.4l33.6,24.3L54.3,330.5z"/>
</svg>
