<?xml version="1.0" encoding="utf-8"?>
<!-- Generator: Adobe Illustrator 24.1.2, SVG Export Plug-In . SVG Version: 6.00 Build 0)  -->
<svg version="1.1" id="Layer_1" xmlns="http://www.w3.org/2000/svg" xmlns:xlink="http://www.w3.org/1999/xlink" x="0px" y="0px"
	 width="372px" height="344px" viewBox="0 0 372 344" style="enable-background:new 0 0 372 344;" xml:space="preserve">
<style type="text/css">
	.st0{opacity:0.1;fill:#FFFFFF;}
</style>
<path class="st0" d="M370.2,224.2L359.9,50.4c0.1-0.5-0.4-1.1-0.3-1.6l-0.2-0.3c-0.2-0.3-0.6-0.9-0.9-1.2l-0.2-0.3
	c-0.2-0.3-0.6-0.9-1.2-1c-0.5-0.1-0.9-0.7-1.4-0.7l-209.5-45c-1.5-0.2-3.1,0-4.6,1.1L25.5,96.1c-1.2,0.9-1.6,2.1-2.1,3.3L0.3,252.3
	c0,0,0,0-0.1,0.5s-0.1,0.5,0.1,0.8c0,0,0.2,0.3-0.1,0.5c0.2,0.3-0.1,0.5,0.1,0.8l0.2,0.3c0.2,0.3,0.4,0.6,0.6,0.9l43.3,58.8
	c0.6,0.9,1.6,1.5,2.8,2c4,1.1,94,27.2,138.4,26.2c0.5,0.1,0.8-0.1,0.8-0.1c0.3-0.2,0.8-0.1,1.1-0.4c4.5-2.4,15.4-9.1,30.3-18.3
	c2,0.3,3.1,0,3.8-1c51.4-32.5,141-90.8,146.2-94.2C369.4,227.9,370.7,226.1,370.2,224.2z M146.5,12.4l118.5,25L93.7,55.3L146.5,12.4
	z M82.3,67.3l190.2-19.7L72.7,274.7l-21.8-8.8L81.3,67.2C81.8,67.2,81.8,67.2,82.3,67.3z M34,103.4l35.2-28.2L40.9,262.1L12,250.4
	L34,103.4z M182.8,332.9c-40.5-0.4-117.8-21.5-130.5-25.2l-30.8-41.8l162.3,65.4L182.8,332.9z M213,315.7c-4.3,2.7-8,5-11.8,7.3
	l19.5-32.9L213,315.7z M189.6,321.2L83,278.8L288.7,45.6l8.4-0.8c0.5,0.1,1.1-0.4,1.6-0.3l47.6,10.1L189.6,321.2z M227.3,306.9
	l16.2-55.7c0.1-0.5,0.1-0.5,0.2-1L350.1,68.9l8.9,152.2C344.7,231.2,275,276.7,227.3,306.9z"/>
</svg>
