<?xml version="1.0" encoding="utf-8"?>
<!-- Generator: Adobe Illustrator 24.1.2, SVG Export Plug-In . SVG Version: 6.00 Build 0)  -->
<svg version="1.1" id="Layer_1" xmlns="http://www.w3.org/2000/svg" xmlns:xlink="http://www.w3.org/1999/xlink" x="0px" y="0px"
	 width="132px" height="27px" viewBox="0 0 132 27" style="enable-background:new 0 0 132 27;" xml:space="preserve">
<style type="text/css">
	.st0{fill:#212121;}
</style>
<path class="st0" d="M20.3,25.6c-0.5-0.3-0.9-0.8-1.2-1.5h0L11,6.5h-0.3c0,0.2-0.1,0.5-0.2,0.9c-0.1,0.4-0.3,0.7-0.4,1.1
	c-0.2,0.4-0.3,0.7-0.4,1C9.5,9.8,9.4,10,9.4,10.1L2.8,24.2c-0.3,0.6-0.7,1.1-1.2,1.4c-0.5,0.3-0.9,0.5-1.3,0.5H0v0.3h6.2v-0.3H6
	c-0.4,0-0.7-0.2-1-0.5c-0.3-0.3-0.3-0.7-0.2-1.2l1.7-4h7.6l1.7,4c0.1,0.5,0.1,0.9-0.2,1.2c-0.3,0.3-0.6,0.5-1,0.5h-0.3v0.3h7.6v-0.3
	h-0.3C21.2,26.1,20.8,25.9,20.3,25.6z M6.9,19.3l3.4-8l3.3,8H6.9z M62.9,3.3c-0.6-0.3-1.2-0.7-1.8-1c0.2-0.4,0.4-0.8,0.7-1.1
	c0.3-0.3,0.6-0.6,0.9-0.9c0.5,0.4,0.9,0.9,1.4,1.4s1,1,1.5,1.6c0.5,0.5,0.9,1.1,1.4,1.6l-0.2,0.2c-0.6-0.3-1.3-0.5-1.9-0.8
	C64.1,4,63.5,3.6,62.9,3.3z M131.2,12.6c-0.6-1.2-1.3-2.3-2.3-3.2c-1-0.9-2.2-1.6-3.5-2.1c-1.3-0.5-2.8-0.7-4.4-0.7
	c-1.6,0-3,0.2-4.3,0.7c-1.3,0.5-2.5,1.2-3.5,2.1c-1,0.9-1.8,1.9-2.3,3.2c-0.5,1.2-0.8,2.6-0.8,4.1c0,1.5,0.3,2.9,0.8,4.1
	c0.5,1.2,1.3,2.3,2.3,3.2c1,0.9,2.2,1.6,3.5,2.1c1.3,0.5,2.8,0.7,4.3,0.7c1.6,0,3-0.2,4.4-0.7c1.3-0.5,2.5-1.2,3.5-2.1
	c1-0.9,1.8-1.9,2.3-3.2c0.6-1.2,0.8-2.6,0.8-4.1C132,15.2,131.7,13.9,131.2,12.6z M127.7,21.5c-0.7,1.4-1.6,2.4-2.8,3.2
	c-1.2,0.8-2.5,1.1-4,1.1c-1.5,0-2.8-0.4-4-1.1c-1.2-0.8-2.1-1.8-2.8-3.2c-0.7-1.4-1-2.9-1-4.7c0-1.8,0.3-3.4,1-4.7
	c0.7-1.3,1.6-2.4,2.8-3.1c1.2-0.8,2.5-1.1,4-1.1c1.5,0,2.8,0.4,4,1.1c1.2,0.8,2.1,1.8,2.8,3.1c0.7,1.3,1,2.9,1,4.7
	C128.8,18.6,128.4,20.1,127.7,21.5z M38.1,21.4h0.3l-1.6,5h-0.1h-5h-3.5h-0.1h-2.4h-0.4H23v-0.3c0.3,0,0.4,0,0.4,0
	c0.5,0,0.9-0.2,1.3-0.5c0.3-0.3,0.5-0.7,0.5-1.2V9.2c0-0.5-0.2-0.9-0.6-1.2c-0.4-0.3-0.8-0.5-1.3-0.5H23V7.1h2.2h0.1h2.8h0.1h2.3
	v0.3c0,0-0.2,0-0.4,0c-0.5,0-1,0.2-1.3,0.5c-0.4,0.3-0.5,0.7-0.5,1.2v16.1h4.5c1,0,1.8-0.2,2.5-0.5c0.7-0.3,1.2-0.8,1.7-1.4
	C37.4,22.8,37.8,22.1,38.1,21.4z M104.9,9.2v15.2c0,0.5,0.2,0.9,0.6,1.2c0.4,0.3,0.9,0.5,1.5,0.5h0.4l0,0.3h-2.5h-0.1h-2.7H102h-2.5
	v-0.3c0.3,0,0.4,0,0.4,0c0.6,0,1-0.2,1.4-0.5c0.4-0.3,0.6-0.7,0.6-1.2V9.2c0-0.5-0.2-0.9-0.6-1.2c-0.4-0.3-0.9-0.5-1.5-0.5h-0.4V7.1
	h2.5h0.1h2.7h0.1h2.5l0,0.3H107c-0.6,0-1.1,0.2-1.5,0.5C105.1,8.3,104.9,8.7,104.9,9.2z M97.3,25.8c0.4,0.2,0.9,0.3,1.4,0.3v0.3
	h-1.5c-1.2,0-2.2-0.1-2.9-0.4c-0.8-0.3-1.4-0.6-1.9-1.1c-0.5-0.5-1-0.9-1.4-1.5c-0.1-0.1-0.3-0.4-0.6-0.9c-0.3-0.4-0.6-0.9-0.9-1.4
	c-0.3-0.5-0.6-0.9-0.9-1.3c-0.3-0.4-0.4-0.7-0.5-0.8c-0.4-0.6-0.8-1.1-1.3-1.5c-0.5-0.4-1-0.6-1.5-0.6v-0.3c0.6,0,1,0,1.5,0
	c0.6,0,1.1-0.1,1.7-0.2c0.5-0.1,1.1-0.4,1.5-0.8c0.5-0.4,0.8-1.1,1.1-2c0.1-0.2,0.1-0.4,0.2-0.7c0-0.3,0.1-0.6,0-0.9
	c0-0.7-0.2-1.2-0.4-1.7c-0.2-0.5-0.5-0.9-0.9-1.2c-0.4-0.3-0.8-0.5-1.3-0.7c-0.5-0.2-1-0.3-1.5-0.3c-0.8,0-1.5,0-2.1,0
	c-0.5,0-0.8,0-0.9,0v16.1c0,0.5,0.2,0.9,0.5,1.2c0.4,0.3,0.8,0.5,1.3,0.5c0.2,0,0.4,0,0.4,0l0,0.3h-2.2h-0.4h-2.1h-0.4h-2.2v-0.3
	c0,0,0.1,0,0.2,0c0.1,0,0.2,0,0.2,0c0.5,0,0.9-0.2,1.3-0.5c0.3-0.3,0.5-0.6,0.5-1V8.9c-0.1-0.4-0.2-0.7-0.5-1
	c-0.3-0.3-0.8-0.5-1.3-0.5c0,0-0.1,0-0.2,0c-0.1,0-0.2,0-0.2,0V7.1h2.2h0.4h2.2h0.4h3.5c1,0,1.9,0.1,2.7,0.3c0.8,0.2,1.5,0.5,2.1,1
	c0.6,0.4,1.1,1,1.4,1.6c0.3,0.7,0.5,1.4,0.5,2.3c0,0.8-0.2,1.6-0.6,2.4c-0.4,0.8-0.9,1.4-1.7,1.9c-0.7,0.5-1.6,0.8-2.6,1
	c0.4,0.2,0.9,0.5,1.4,1c0.5,0.5,0.9,1,1.3,1.5c0,0,0.2,0.3,0.4,0.6c0.3,0.4,0.6,0.8,1,1.3c0.4,0.5,0.8,1,1.2,1.6
	c0.4,0.5,0.9,0.9,1.2,1.3C96.5,25.4,96.9,25.6,97.3,25.8z M74.5,7.1h2v0.3H76c-0.4,0-0.8,0.1-1.1,0.4c-0.3,0.3-0.4,0.6-0.4,1v10.7
	c0,2.2-0.7,4-2.1,5.3c-1.4,1.3-3.4,2-5.9,2c-2.7,0-4.8-0.6-6.2-1.9c-1.5-1.3-2.2-3.1-2.2-5.3V8.8c0-0.4-0.2-0.7-0.5-1
	c-0.3-0.3-0.6-0.4-1.1-0.4h-0.5V7.1h2h0.1h2.8H61h2v0.3h-0.5c-0.4,0-0.8,0.1-1.1,0.4c-0.3,0.3-0.4,0.6-0.4,1v10.4
	c0,2,0.5,3.6,1.5,4.8c1,1.2,2.4,1.8,4.2,1.8c1.9,0,3.4-0.6,4.5-1.7c1.1-1.1,1.6-2.6,1.6-4.5V8.8c0-0.4-0.2-0.7-0.5-1
	c-0.3-0.3-0.7-0.4-1.1-0.4h-0.5V7.1h2h0.1H74.5L74.5,7.1z M54.8,21.4h0.3l-1.6,5h-0.1h-5H45h-0.1h-2.4H42h-2.2v-0.3
	c0.3,0,0.4,0,0.4,0c0.5,0,0.9-0.2,1.3-0.5c0.3-0.3,0.5-0.7,0.5-1.2V9.2c0-0.5-0.2-0.9-0.6-1.2c-0.4-0.3-0.8-0.5-1.3-0.5h-0.4V7.1H42
	h0.1h2.8H45h2.3v0.3c0,0-0.2,0-0.4,0c-0.5,0-1,0.2-1.3,0.5C45.1,8.3,45,8.7,45,9.2v16.1h4.5c1,0,1.8-0.2,2.5-0.5
	c0.7-0.3,1.2-0.8,1.7-1.4C54.2,22.8,54.5,22.1,54.8,21.4z"/>
</svg>
