<?xml version="1.0" encoding="utf-8"?>
<!-- Generator: Adobe Illustrator 24.1.2, SVG Export Plug-In . SVG Version: 6.00 Build 0)  -->
<svg version="1.1" id="Layer_1" xmlns="http://www.w3.org/2000/svg" xmlns:xlink="http://www.w3.org/1999/xlink" x="0px" y="0px"
	 width="120px" height="30px" viewBox="0 0 120 30" style="enable-background:new 0 0 120 30;" xml:space="preserve">
<style type="text/css">
	.st0{fill:#FFFFFF;}
</style>
<path class="st0" d="M18.4,22.9c-0.4-0.3-0.8-0.7-1.1-1.4h0L10,5.7H9.8c0,0.2-0.1,0.5-0.2,0.8c-0.1,0.3-0.3,0.7-0.4,1
	C9,7.8,8.9,8.1,8.8,8.4C8.7,8.7,8.6,8.8,8.6,8.9l-6,12.8c-0.3,0.6-0.6,1-1,1.3c-0.4,0.3-0.8,0.4-1.2,0.4H0.1v0.3h5.6v-0.3H5.5
	c-0.3,0-0.7-0.2-0.9-0.5c-0.2-0.3-0.3-0.6-0.1-1.1l1.5-3.6h6.9l1.5,3.6c0.1,0.5,0.1,0.8-0.2,1.1c-0.3,0.3-0.6,0.5-0.9,0.5h-0.2v0.3
	h6.8v-0.3h-0.2C19.3,23.3,18.8,23.2,18.4,22.9z M6.4,17.2l3.1-7.3l3,7.3H6.4z M34.4,19.1h0.3l-1.4,4.6h-0.1h-4.5h-3.1h-0.1h-2.2
	h-0.4h-2v-0.3c0.3,0,0.4,0,0.4,0c0.5,0,0.8-0.2,1.1-0.5c0.3-0.3,0.5-0.7,0.5-1.1V8.1c0-0.4-0.2-0.8-0.5-1.1
	c-0.3-0.3-0.7-0.4-1.2-0.4h-0.3V6.2h2H23h2.5h0.1h2v0.3c0,0-0.1,0-0.3,0c-0.5,0-0.9,0.2-1.2,0.4c-0.3,0.3-0.5,0.7-0.5,1.1v14.6h4.1
	c0.9,0,1.7-0.1,2.3-0.4c0.6-0.3,1.1-0.7,1.5-1.3C33.8,20.4,34.2,19.8,34.4,19.1z M49.5,19.1h0.3l-1.4,4.6h-0.1h-4.5h-3.1h-0.1h-2.2
	H38h-2v-0.3c0.3,0,0.4,0,0.4,0c0.5,0,0.8-0.2,1.1-0.5c0.3-0.3,0.5-0.7,0.5-1.1V8.1c0-0.4-0.2-0.8-0.5-1.1c-0.3-0.3-0.7-0.4-1.2-0.4
	H36V6.2h2h0.1h2.5h0.1h2v0.3c0,0-0.1,0-0.3,0c-0.5,0-0.9,0.2-1.2,0.4c-0.3,0.3-0.5,0.7-0.5,1.1v14.6h4.1c0.9,0,1.7-0.1,2.3-0.4
	c0.6-0.3,1.1-0.7,1.5-1.3C48.9,20.4,49.3,19.8,49.5,19.1z M56.8,2.8c-0.6-0.3-1.1-0.6-1.7-0.9c0.2-0.4,0.4-0.7,0.6-1
	C56,0.5,56.2,0.2,56.6,0c0.4,0.4,0.8,0.8,1.3,1.3c0.5,0.5,0.9,0.9,1.3,1.4c0.4,0.5,0.8,1,1.2,1.5l-0.2,0.2c-0.6-0.2-1.1-0.5-1.7-0.7
	C57.9,3.4,57.4,3.1,56.8,2.8z M67.3,6.2h1.8v0.3h-0.4c-0.4,0-0.7,0.1-1,0.3c-0.3,0.2-0.4,0.5-0.4,0.9v9.7c0,2-0.6,3.6-1.9,4.8
	c-1.3,1.2-3.1,1.8-5.3,1.8c-2.4,0-4.3-0.6-5.6-1.8c-1.3-1.2-2-2.8-2-4.8V7.8c0-0.4-0.2-0.7-0.4-0.9c-0.3-0.2-0.6-0.3-1-0.3h-0.4V6.2
	h1.8h0.1H55h0.1h1.8v0.3h-0.4c-0.4,0-0.7,0.1-1,0.3c-0.3,0.2-0.4,0.5-0.4,0.9v9.4c0,1.8,0.5,3.3,1.4,4.3c0.9,1.1,2.2,1.6,3.8,1.6
	c1.7,0,3.1-0.5,4.1-1.5c1-1,1.5-2.4,1.5-4.1V7.8c0-0.4-0.1-0.7-0.4-0.9c-0.3-0.2-0.6-0.3-1-0.3H64V6.2h1.8h0.1H67.3L67.3,6.2z
	 M87.9,23.1c0.4,0.2,0.8,0.2,1.3,0.2v0.3h-1.4c-1.1,0-1.9-0.1-2.6-0.3c-0.7-0.2-1.3-0.6-1.7-1c-0.5-0.4-0.9-0.8-1.2-1.3
	c-0.1-0.1-0.3-0.4-0.6-0.8c-0.3-0.4-0.5-0.8-0.8-1.2c-0.3-0.4-0.5-0.8-0.8-1.2c-0.2-0.4-0.4-0.6-0.4-0.7c-0.3-0.5-0.7-1-1.2-1.3
	c-0.4-0.4-0.9-0.5-1.3-0.5v-0.3c0.5,0,0.9,0,1.3,0c0.5,0,1-0.1,1.5-0.2c0.5-0.1,1-0.3,1.4-0.7s0.8-1,1-1.8c0.1-0.2,0.1-0.4,0.1-0.7
	c0-0.3,0-0.5,0-0.9c0-0.6-0.2-1.1-0.3-1.5c-0.2-0.4-0.5-0.8-0.8-1.1c-0.3-0.3-0.7-0.5-1.1-0.6c-0.4-0.1-0.9-0.2-1.3-0.2
	c-0.7,0-1.3,0-1.9,0c-0.5,0-0.7,0-0.9,0v14.5c0,0.4,0.2,0.8,0.5,1.1c0.3,0.3,0.7,0.4,1.1,0.4c0.2,0,0.3,0,0.3,0l0,0.3h-2h-0.4h-1.9
	h-0.3h-2v-0.3c0,0,0.1,0,0.2,0c0.1,0,0.2,0,0.2,0c0.4,0,0.8-0.2,1.1-0.5c0.3-0.3,0.4-0.6,0.5-1v-14c0-0.4-0.2-0.7-0.5-1
	c-0.3-0.3-0.7-0.4-1.1-0.4c0,0-0.1,0-0.2,0c-0.1,0-0.2,0-0.2,0V6.2h2h0.3h1.9h0.3h3.2c0.9,0,1.7,0.1,2.4,0.3C82.4,6.7,83,7,83.6,7.4
	c0.5,0.4,1,0.9,1.3,1.5c0.3,0.6,0.4,1.3,0.4,2.1c0,0.8-0.2,1.5-0.5,2.2c-0.3,0.7-0.9,1.3-1.5,1.7c-0.7,0.5-1.4,0.8-2.3,0.9
	c0.4,0.1,0.8,0.4,1.3,0.9c0.5,0.5,0.8,0.9,1.1,1.4c0,0,0.2,0.2,0.4,0.6c0.2,0.3,0.5,0.7,0.9,1.2c0.4,0.5,0.7,0.9,1.1,1.4
	c0.4,0.5,0.8,0.9,1.1,1.2C87.2,22.7,87.5,22.9,87.9,23.1z M94.7,8.1v13.7c0,0.4,0.2,0.8,0.6,1.1c0.4,0.3,0.8,0.5,1.3,0.5h0.3l0,0.3
	h-2.3h-0.1h-2.4h-0.1h-2.3v-0.3c0.3,0,0.4,0,0.4,0c0.5,0,0.9-0.2,1.3-0.5c0.4-0.3,0.5-0.7,0.6-1.1V8.1c0-0.4-0.2-0.8-0.6-1.1
	c-0.4-0.3-0.8-0.4-1.3-0.4h-0.4V6.2h2.3h0.1h2.4h0.1H97l0,0.3h-0.3c-0.5,0-1,0.2-1.3,0.4C94.9,7.3,94.7,7.6,94.7,8.1z M118.4,11.2
	c-0.5-1.1-1.2-2.1-2.1-2.9c-0.9-0.8-2-1.4-3.2-1.9c-1.2-0.4-2.5-0.7-4-0.7c-1.4,0-2.7,0.2-3.9,0.7c-1.2,0.4-2.3,1.1-3.2,1.9
	c-0.9,0.8-1.6,1.8-2.1,2.9c-0.5,1.1-0.7,2.4-0.7,3.7c0,1.4,0.2,2.6,0.7,3.7c0.5,1.1,1.2,2.1,2.1,2.9c0.9,0.8,2,1.4,3.2,1.9
	s2.5,0.7,3.9,0.7c1.4,0,2.7-0.2,4-0.7s2.3-1.1,3.2-1.9c0.9-0.8,1.6-1.8,2.1-2.9c0.5-1.1,0.8-2.4,0.8-3.7
	C119.1,13.5,118.9,12.3,118.4,11.2z M115.3,19.2c-0.6,1.2-1.4,2.2-2.5,2.9c-1.1,0.7-2.3,1-3.6,1c-1.3,0-2.5-0.3-3.6-1
	c-1.1-0.7-1.9-1.6-2.5-2.9c-0.6-1.2-0.9-2.6-0.9-4.3c0-1.6,0.3-3.1,0.9-4.3c0.6-1.2,1.5-2.2,2.5-2.8c1.1-0.7,2.3-1,3.6-1
	c1.4,0,2.6,0.3,3.6,1c1.1,0.7,1.9,1.6,2.5,2.8c0.6,1.2,0.9,2.6,0.9,4.3C116.2,16.5,115.9,18,115.3,19.2z"/>
</svg>
