<?xml version="1.0" encoding="utf-8"?>
<!-- Generator: Adobe Illustrator 24.1.2, SVG Export Plug-In . SVG Version: 6.00 Build 0)  -->
<svg version="1.1" id="Layer_1" xmlns="http://www.w3.org/2000/svg" xmlns:xlink="http://www.w3.org/1999/xlink" x="0px" y="0px"
	 width="160px" height="33px" viewBox="0 0 160 33" style="enable-background:new 0 0 160 33;" xml:space="preserve">
<style type="text/css">
	.st0{fill:#FFFFFF;}
</style>
<path class="st0" d="M24.6,31.5c-0.6-0.4-1.1-1-1.5-1.8l0,0L13.3,8.4H13c0,0.2-0.1,0.6-0.2,1.1c-0.1,0.5-0.4,0.8-0.5,1.3
	c-0.2,0.5-0.4,0.8-0.5,1.2c-0.2,0.4-0.4,0.6-0.4,0.7l-8,17.1c-0.4,0.7-0.8,1.3-1.5,1.7c-0.6,0.4-1.1,0.6-1.6,0.6H0v0.4h7.5v-0.4H7.3
	c-0.5,0-0.8-0.2-1.2-0.6c-0.4-0.4-0.4-0.8-0.2-1.5L8,25.2h9.2l2.1,4.8c0.1,0.6,0.1,1.1-0.2,1.5c-0.4,0.4-0.7,0.6-1.2,0.6h-0.4v0.4
	h9.2v-0.4h-0.4C25.7,32.2,25.2,31.9,24.6,31.5z M8.4,23.9l4.1-9.7l4,9.7H8.4z M76.2,4.5c-0.7-0.4-1.5-0.8-2.2-1.2
	c0.2-0.5,0.5-1,0.8-1.3c0.4-0.4,0.7-0.7,1.1-1.1C76.5,1.4,77,2,77.6,2.6s1.2,1.2,1.8,1.9c0.6,0.6,1.1,1.3,1.7,1.9L81,6.7
	c-0.7-0.4-1.6-0.6-2.3-1C77.7,5.4,77,4.9,76.2,4.5z M159,15.8c-0.7-1.5-1.6-2.8-2.8-3.9s-2.7-1.9-4.2-2.5c-1.6-0.6-3.4-0.8-5.3-0.8
	s-3.6,0.2-5.2,0.8c-1.6,0.6-3,1.5-4.2,2.5c-1.2,1.1-2.2,2.3-2.8,3.9c-0.6,1.5-1,3.2-1,5s0.4,3.5,1,5s1.6,2.8,2.8,3.9
	s2.7,1.9,4.2,2.5c1.6,0.6,3.4,0.8,5.2,0.8c1.9,0,3.6-0.2,5.3-0.8c1.6-0.6,3-1.5,4.2-2.5c1.2-1.1,2.2-2.3,2.8-3.9c0.7-1.5,1-3.2,1-5
	S159.6,17.4,159,15.8z M154.8,26.6c-0.8,1.7-1.9,2.9-3.4,3.9s-3,1.3-4.8,1.3s-3.4-0.5-4.8-1.3c-1.5-1-2.5-2.2-3.4-3.9
	c-0.8-1.7-1.2-3.5-1.2-5.7s0.4-4.1,1.2-5.7s1.9-2.9,3.4-3.8c1.5-1,3-1.3,4.8-1.3s3.4,0.5,4.8,1.3c1.5,1,2.5,2.2,3.4,3.8
	s1.2,3.5,1.2,5.7C156.1,23.1,155.6,24.9,154.8,26.6z M46.2,26.5h0.4l-1.9,6.1h-0.1h-6.1h-4.2h-0.1h-2.9h-0.5H28v-0.4
	c0.4,0,0.5,0,0.5,0c0.6,0,1.1-0.2,1.6-0.6c0.4-0.4,0.6-0.8,0.6-1.5V11.7c0-0.6-0.2-1.1-0.7-1.5s-1-0.6-1.6-0.6H28V9.1h2.7h0.1h3.4
	h0.1H37v0.4c0,0-0.2,0-0.5,0c-0.6,0-1.2,0.2-1.6,0.6c-0.5,0.4-0.6,0.8-0.6,1.5v19.5h5.5c1.2,0,2.2-0.2,3-0.6s1.5-1,2.1-1.7
	C45.3,28.2,45.8,27.3,46.2,26.5z M127.2,11.7v18.4c0,0.6,0.2,1.1,0.7,1.5s1.1,0.6,1.8,0.6h0.5v0.4h-3H127h-3.3h-0.1h-3v-0.4
	c0.4,0,0.5,0,0.5,0c0.7,0,1.2-0.2,1.7-0.6s0.7-0.8,0.7-1.5V11.7c0-0.6-0.2-1.1-0.7-1.5s-1.1-0.6-1.8-0.6h-0.5V9.1h3h0.1h3.3h0.1h3
	v0.4h-0.4c-0.7,0-1.3,0.2-1.8,0.6C127.4,10.6,127.2,11.1,127.2,11.7z M117.9,31.8c0.5,0.2,1.1,0.4,1.7,0.4v0.4h-1.8
	c-1.5,0-2.7-0.1-3.5-0.5c-1-0.4-1.7-0.7-2.3-1.3c-0.6-0.6-1.2-1.1-1.7-1.8c-0.1-0.1-0.4-0.5-0.7-1.1c-0.4-0.5-0.7-1.1-1.1-1.7
	s-0.7-1.1-1.1-1.6s-0.5-0.8-0.6-1c-0.5-0.7-1-1.3-1.6-1.8s-1.2-0.7-1.8-0.7v-0.4c0.7,0,1.2,0,1.8,0c0.7,0,1.3-0.1,2.1-0.2
	c0.6-0.1,1.3-0.5,1.8-1c0.6-0.5,1-1.3,1.3-2.4c0.1-0.2,0.1-0.5,0.2-0.8c0-0.4,0.1-0.7,0-1.1c0-0.8-0.2-1.5-0.5-2.1
	c-0.2-0.6-0.6-1.1-1.1-1.5s-1-0.6-1.6-0.8s-1.2-0.4-1.8-0.4c-1,0-1.8,0-2.5,0c-0.6,0-1,0-1.1,0v19.5c0,0.6,0.2,1.1,0.6,1.5
	c0.5,0.4,1,0.6,1.6,0.6c0.2,0,0.5,0,0.5,0v0.4H102h-0.5H99h-0.5h-2.7V32c0,0,0.1,0,0.2,0s0.2,0,0.2,0c0.6,0,1.1-0.2,1.6-0.6
	c0.4-0.4,0.6-0.7,0.6-1.2V11.3c-0.1-0.5-0.2-0.8-0.6-1.2s-1-0.6-1.6-0.6c0,0-0.1,0-0.2,0s-0.2,0-0.2,0V9.1h2.7H99h2.7h0.5h4.2
	c1.2,0,2.3,0.1,3.3,0.4c1,0.2,1.8,0.6,2.5,1.2c0.7,0.5,1.3,1.2,1.7,1.9c0.4,0.8,0.6,1.7,0.6,2.8c0,1-0.2,1.9-0.7,2.9
	s-1.1,1.7-2.1,2.3c-0.8,0.6-1.9,1-3.2,1.2c0.5,0.2,1.1,0.6,1.7,1.2s1.1,1.2,1.6,1.8c0,0,0.2,0.4,0.5,0.7c0.4,0.5,0.7,1,1.2,1.6
	s1,1.2,1.5,1.9c0.5,0.6,1.1,1.1,1.5,1.6C117,31.3,117.5,31.5,117.9,31.8z M90.3,9.1h2.4v0.4h-0.6c-0.5,0-1,0.1-1.3,0.5
	c-0.4,0.4-0.5,0.7-0.5,1.2v13c0,2.7-0.8,4.8-2.5,6.4S83.7,33,80.6,33c-3.3,0-5.8-0.7-7.5-2.3c-1.8-1.6-2.7-3.8-2.7-6.4V11.2
	c0-0.5-0.2-0.8-0.6-1.2s-0.7-0.5-1.3-0.5h-0.6V9.1h2.4h0.1h3.4h0.1h2.4v0.4h-0.6c-0.5,0-1,0.1-1.3,0.5c-0.4,0.4-0.5,0.7-0.5,1.2
	v12.6c0,2.4,0.6,4.4,1.8,5.8c1.2,1.5,2.9,2.2,5.1,2.2c2.3,0,4.1-0.7,5.5-2.1c1.3-1.3,1.9-3.2,1.9-5.5v-13c0-0.5-0.2-0.8-0.6-1.2
	s-0.8-0.5-1.3-0.5h-0.6V9.1h2.4h0.1H90.3L90.3,9.1z M66.4,26.5h0.4l-1.9,6.1h-0.1h-6.1h-4.1h-0.1h-2.9H51h-2.7v-0.4
	c0.4,0,0.5,0,0.5,0c0.6,0,1.1-0.2,1.6-0.6c0.4-0.4,0.6-0.8,0.6-1.5V11.7c0-0.6-0.2-1.1-0.7-1.5s-1-0.6-1.6-0.6h-0.5V9.1H51h0h3.4
	h0.1h2.8v0.4c0,0-0.2,0-0.5,0c-0.6,0-1.2,0.2-1.6,0.6c-0.6,0.5-0.7,1-0.7,1.6v19.5H60c1.2,0,2.2-0.2,3-0.6s1.5-1,2.1-1.7
	C65.7,28.2,66.1,27.3,66.4,26.5z"/>
</svg>
